Coordinates
version=1
nRows=19
nColumns=24
inDegrees=yes

Units are S.I. units (second, meters, Newtons, ...)
Angles are in degrees.

endheader
time	pelvis_tilt	pelvis_list	pelvis_rotation	pelvis_tx	pelvis_ty	pelvis_tz	hip_flexion_r	hip_adduction_r	hip_rotation_r	knee_angle_r	ankle_angle_r	subtalar_angle_r	mtp_angle_r	hip_flexion_l	hip_adduction_l	hip_rotation_l	knee_angle_l	ankle_angle_l	subtalar_angle_l	mtp_angle_l	lumbar_extension	lumbar_bending	lumbar_rotation
      4.24500000	      4.33182864	     10.82958841	     -7.21106845	      0.64721816	      0.97749237	     -0.03964121	      1.33744474	    -14.21929034	     -1.08318686	    -44.75856200	      3.16233293	    -10.32927226	     29.84293450	     16.71173326	     10.38866643	    -19.05918881	    -14.25744572	     -3.42546900	      1.09362878	     41.30332458	    -18.63135294	    -15.48357285	      8.20011563
      4.25000000	      4.41086014	     10.93860479	     -7.07571156	      0.65211883	      0.97802734	     -0.04066052	      1.97328620	    -14.42886035	     -0.97231525	    -46.16156528	      2.26096848	    -10.51805315	     31.58547735	     16.45372465	     10.64337963	    -18.83400623	    -14.47400906	     -3.08779444	      1.09633554	     40.79386069	    -18.73018588	    -15.54774448	      7.87308453
      4.25500000	      4.61001697	     11.03543180	     -6.92565781	      0.65711955	      0.97877794	     -0.04174842	      2.42336836	    -14.65337521	     -0.93529631	    -47.45007821	      1.48087312	    -10.62824448	     33.05187222	     16.00908912	     10.92884653	    -18.58507434	    -14.59588735	     -2.78613534	      1.05877512	     40.35589640	    -18.95730798	    -15.59139633	      7.55228396
      4.26000000	      4.65199904	     11.11234608	     -6.75477109	      0.66200774	      0.97929812	     -0.04277769	      3.06246810	    -14.81683502	     -0.86502625	    -48.72762223	      0.85667035	    -10.72145709	     34.09366981	     15.73854342	     11.15070185	    -18.38662849	    -14.74288178	     -2.43868036	      1.15996043	     40.06439811	    -19.01496408	    -15.60461288	      7.22390423
      4.26500000	      4.87566547	     11.19621934	     -6.56382086	      0.66704623	      0.98013313	     -0.04389784	      3.42238807	    -15.03538726	     -0.90970691	    -49.85314541	      0.37727257	    -10.72665951	     35.14621435	     15.21038757	     11.43842067	    -18.13540161	    -14.78500795	     -2.14126341	      1.17230841	     39.70949794	    -19.26902318	    -15.61651746	      6.84422646
      4.27000000	      5.00442636	     11.27318543	     -6.41270330	      0.67196911	      0.98080930	     -0.04484226	      3.92059455	    -15.19854819	     -0.86054479	    -50.96744716	      0.12057810	    -10.80551769	     35.32402809	     14.78785301	     11.66906753	    -17.99176539	    -14.82862791	     -1.83700184	      1.30333323	     39.68554462	    -19.40867138	    -15.63718382	      6.50168360
      4.27500000	      5.02603673	     11.31601384	     -6.24041212	      0.67679491	      0.98135691	     -0.04585027	      4.52955622	    -15.31929246	     -0.82295958	    -52.00415820	     -0.23009308	    -10.95854925	     37.02918546	     14.48802578	     11.85394030	    -17.78701584	    -14.90139782	     -1.46022759	      1.41741350	     38.96634873	    -19.43236381	    -15.60373133	      6.21533140
      4.28000000	      5.16036650	     11.35814037	     -6.07436777	      0.68168866	      0.98210107	     -0.04677053	      4.96926610	    -15.44729677	     -0.82691757	    -52.94626134	     -0.24970850	    -10.92347142	     37.17483686	     14.02830318	     12.04593117	    -17.63195591	    -14.90753003	     -1.16115409	      1.60329923	     38.95246650	    -19.57707703	    -15.57988757	      5.86831194
      4.28500000	      5.26927342	     11.39476900	     -5.92063931	      0.68646934	      0.98280408	     -0.04765134	      5.44391435	    -15.56209803	     -0.82665249	    -53.83458488	     -0.17814195	    -10.92563604	     37.35478354	     13.61727957	     12.21490370	    -17.50805522	    -14.94802192	     -0.87126646	      1.76166941	     38.89779148	    -19.69668164	    -15.55208480	      5.55067979
      4.29000000	      5.32509402	     11.42119890	     -5.77793291	      0.69119975	      0.98343937	     -0.04847569	      5.97568855	    -15.65049752	     -0.80450520	    -54.65796278	     -0.02155371	    -10.91185806	     37.62714885	     13.26200766	     12.35566184	    -17.38743066	    -14.98571073	     -0.56405124	      1.97616060	     38.75778067	    -19.74985810	    -15.51550824	      5.23772190
      4.29500000	      5.37533899	     11.44197623	     -5.67518919	      0.69583875	      0.98405730	     -0.04921952	      6.52874010	    -15.72108973	     -0.74606718	    -55.42468174	      0.19410779	    -10.93529061	     37.91910390	     12.92633267	     12.47483164	    -17.30474196	    -15.03808741	     -0.24113641	      2.18235632	     38.54942856	    -19.79226297	    -15.48493818	      4.98225686
      4.30000000	      5.33449011	     11.43652806	     -5.62617992	      0.70035812	      0.98454961	     -0.04987987	      7.21199699	    -15.72864825	     -0.60265455	    -56.13377804	      0.34782293	    -11.13618579	     38.82185542	     12.70780784	     12.54220117	    -17.22544557	    -15.12017341	      0.20211963	      2.40681726	     37.33507119	    -19.71942511	    -15.43955824	      4.85553527
      4.30500000	      5.44460453	     11.41137060	     -5.55555291	      0.70494643	      0.98530690	     -0.05054449	      7.66062474	    -15.74141327	     -0.55832085	    -56.72127652	      0.67773945	    -11.20258652	     38.87292416	     12.29849756	     12.61576956	    -17.12727045	    -15.15668774	      0.50542403	      2.52550208	     37.34292659	    -19.82108047	    -15.36738095	      4.65667595
      4.31000000	      5.48506849	     11.42520201	     -5.48813508	      0.70945211	      0.98592931	     -0.05109840	      8.20913668	    -15.78037098	     -0.49269764	    -57.28671913	      1.08392863	    -11.15662287	     38.93276630	     11.98438373	     12.69766968	    -17.07904286	    -15.21790774	      0.78685063	      2.83140831	     37.24690538	    -19.84731867	    -15.34752045	      4.40484320
      4.31500000	      5.40070862	     11.40306396	     -5.48754148	      0.71378686	      0.98634547	     -0.05157374	      8.94587497	    -15.73443820	     -0.31648657	    -57.82997092	      1.50909994	    -11.20235852	     38.84364339	     11.84165444	     12.71268704	    -17.07011143	    -15.33076469	      1.16462204	      3.03829221	     36.58251432	    -19.71870696	    -15.30560769	      4.36760566
      4.32000000	      5.47224528	     11.40593603	     -5.44015740	      0.71827595	      0.98703217	     -0.05210302	      9.43180000	    -15.75851665	     -0.27621041	    -58.23751212	      1.93244008	    -11.24207190	     38.82110951	     11.47882890	     12.79595330	    -16.97474087	    -15.35660682	      1.43869357	      3.22645522	     36.44397849	    -19.77166843	    -15.27446345	      4.13314282
      4.32500000	      5.40432413	     11.38339414	     -5.46121252	      0.72255530	      0.98746842	     -0.05253556	     10.13599935	    -15.70526677	     -0.11084932	    -58.64669309	      2.40364254	    -11.25372211	     38.34809194	     11.31349834	     12.81523391	    -16.94039546	    -15.44997861	      1.83051939	      3.40347322	     35.51826005	    -19.66049651	    -15.23471949	      4.11391176
      4.33000000	      5.48756532	     11.36920501	     -5.41568570	      0.72697869	      0.98817897	     -0.05301095	     10.58260011	    -15.70090024	     -0.09326431	    -58.91536225	      2.85169037	    -11.28593330	     38.30895898	     10.93358761	     12.88077144	    -16.82834156	    -15.46382423	      2.06506306	      3.55259238	     35.44501678	    -19.72890031	    -15.18929647	      3.91037078
      4.33500000	      5.42691873	     11.34834445	     -5.42683744	      0.73123975	      0.98863386	     -0.05342269	     11.24653834	    -15.64618803	      0.03024777	    -59.18905120	      3.36919090	    -11.23072597	     37.60839191	     10.74369457	     12.90978485	    -16.76069245	    -15.51980487	      2.37669474	      3.66532094	     34.67046992	    -19.62621492	    -15.14896435	      3.88762721
